<svg width="19" height="20" viewBox="0 0 19 20" fill="none" xmlns="http://www.w3.org/2000/svg">
<path d="M14.0646 1.76821C13.1576 2.8207 13.339 4.10817 13.9899 4.81606C14.42 5.28553 14.9391 5.52837 15.5659 5.54754C16.1799 5.56671 16.7167 5.35631 17.2098 4.91929C17.7013 5.42464 18.2126 5.89067 18.655 6.41323C19.1776 7.03067 19.0925 7.82704 18.4943 8.4253C16.8773 10.0416 15.2588 11.6562 13.6389 13.2689C11.8931 15.0105 10.1481 16.7533 8.40393 18.4975C7.99591 18.9074 7.53087 19.1164 6.96652 18.9512C6.71767 18.875 6.48848 18.7453 6.29501 18.5712C5.86339 18.1824 5.46964 17.7522 5.0508 17.3481C4.9338 17.2351 4.93872 17.1515 5.03851 17.0424C5.68593 16.3291 5.6643 15.1119 5.15944 14.4133C4.53021 13.5427 3.48165 13.2203 2.50486 13.5998C2.30768 13.679 2.12369 13.7877 1.9592 13.9222C1.8073 14.0451 1.72176 14.026 1.59591 13.8918C1.22034 13.4911 0.844765 13.0895 0.445595 12.712C-0.135955 12.1638 -0.163482 11.2028 0.45297 10.6065C0.941609 10.1341 1.4155 9.64592 1.89627 9.16465C4.75732 6.30164 7.61837 3.43846 10.4794 0.57512C11.2517 -0.197657 12.0648 -0.189302 12.8366 0.585934C13.2382 0.988545 13.6526 1.3715 14.0646 1.76821ZM15.821 8.00893C15.7163 7.82163 15.6465 7.59993 15.501 7.45294C14.1875 6.12401 12.8658 4.80327 11.5358 3.49073C11.1352 3.09304 10.7065 3.09746 10.3103 3.49516C8.03261 5.77285 5.75672 8.05153 3.48263 10.3312C3.0751 10.7402 3.08002 11.1605 3.48951 11.5725C4.75388 12.8463 6.01874 14.1194 7.28409 15.3916C7.83172 15.9422 8.23089 15.9397 8.78638 15.3842L12.6798 11.4904C13.601 10.5688 14.5226 9.64755 15.4445 8.72664C15.6492 8.53789 15.7828 8.28449 15.823 8.00893H15.821Z" fill="white"/>
<path d="M14.421 8.03989L8.04308 14.4207L4.56165 10.9516L10.9066 4.60565L14.421 8.03989Z" fill="white"/>
</svg>
