<svg width="19" height="11" viewBox="0 0 19 11" fill="none" xmlns="http://www.w3.org/2000/svg">
<path d="M0 7.97947C0.352089 7.8718 0.698726 7.78321 1.03264 7.66146C2.30016 7.19988 3.56769 6.73785 4.82748 6.25628C6.55704 5.59435 8.27023 4.88972 10.0066 4.25005C11.4499 3.71897 12.9246 3.2742 14.4488 3.02796C15.1221 2.91893 15.799 2.81898 16.4782 2.76628C17.0007 2.72585 17.5295 2.75992 18.0551 2.77309C18.3214 2.77991 18.5871 2.81853 18.8534 2.83534C19.0119 2.84624 19.0183 2.84942 18.9815 3.00025C18.8488 3.54542 18.603 4.03471 18.2832 4.49174C17.768 5.23 17.246 5.96416 16.7463 6.71468C16.4832 7.11038 16.2733 7.53879 16.227 8.02763C16.1929 8.38562 16.2211 8.73453 16.3633 9.06482C16.4569 9.2797 16.6195 9.4169 16.8735 9.39055C17.0511 9.37193 17.1565 9.46188 17.2269 9.60862C17.3381 9.85246 17.3901 10.1191 17.3787 10.3869C17.3787 10.4196 17.3237 10.4605 17.2851 10.4809C17.2569 10.4959 17.2142 10.4841 17.1779 10.4841H0.618314C0.418873 10.4841 0.419781 10.4841 0.41751 10.2855C0.413875 10.0452 0.433864 9.80125 0.397974 9.56592C0.352543 9.25971 0.261682 8.95942 0.186721 8.6573C0.14129 8.47558 0.0822302 8.29385 0.0308933 8.1094C0.0172641 8.06806 0.00999479 8.0249 0 7.97947ZM13.9246 5.29905C13.8791 5.67249 14.2562 6.10136 14.7264 6.09818C15.1416 6.09545 15.4933 5.73473 15.4987 5.3045C15.5009 5.19883 15.4818 5.09379 15.4426 4.99562C15.4034 4.89745 15.345 4.80813 15.2707 4.73295C15.1964 4.65776 15.1078 4.59824 15.0101 4.5579C14.9124 4.51757 14.8076 4.49723 14.7019 4.4981C14.2344 4.49038 13.8841 4.92288 13.9246 5.2986V5.29905Z" fill="white"/>
<path d="M11.2037 2.71677C7.95811 3.76168 4.87745 5.18548 1.64958 6.28445C1.64368 6.20995 1.63732 6.16315 1.63686 6.1159C1.63686 5.70702 1.6405 5.29815 1.63368 4.89199C1.62865 4.84771 1.63906 4.80306 1.66315 4.76556C1.68724 4.72807 1.72352 4.70003 1.76589 4.68619C2.16068 4.50447 2.55048 4.31184 2.94709 4.13512C3.07566 4.07788 3.11745 4.00518 3.11337 3.86753C3.10337 3.51862 3.11336 3.16926 3.10837 2.82035C3.10451 2.78264 3.11278 2.74468 3.13198 2.712C3.15118 2.67931 3.18031 2.65361 3.21513 2.63863C4.76947 1.77968 6.32321 0.919824 7.87634 0.059061C7.94372 0.0234828 8.01866 0.00462804 8.09486 0.00408861C9.35602 0.000908451 10.6172 0.00408878 11.8783 0C11.9756 0 12.0351 0.0258954 12.0819 0.117666C12.1764 0.302569 12.2899 0.478387 12.3872 0.662836C12.4023 0.697568 12.428 0.726615 12.4606 0.745799C12.4933 0.764984 12.5312 0.773316 12.5689 0.769599C13.0137 0.765964 13.458 0.769599 13.9027 0.76551C13.9448 0.760612 13.9872 0.770126 14.0231 0.792493C14.059 0.81486 14.0862 0.848755 14.1004 0.888628C14.2058 1.11578 14.3212 1.3343 14.432 1.55601C14.2694 1.66277 14.2258 1.67276 14.1204 1.53465C13.8987 1.24344 13.6206 1.16712 13.2608 1.17757C12.3363 1.20346 11.4099 1.1862 10.4845 1.1862H10.2655L11.2037 2.71677ZM2.11025 5.36402L9.99114 2.24201C9.90028 2.10572 9.81987 1.98987 9.74718 1.87084C9.70175 1.79634 9.65632 1.77635 9.57182 1.81633C9.40054 1.8981 9.22336 1.96807 9.04891 2.04348L3.88478 4.26369C3.33961 4.49766 2.79444 4.7339 2.24927 4.96468C2.14796 5.00739 2.09526 5.066 2.10843 5.17912C2.11229 5.24068 2.1129 5.3024 2.11025 5.36402ZM8.25659 0.424324C8.25647 0.447499 8.25952 0.470582 8.26568 0.492925C8.37744 0.679192 8.48965 0.865307 8.60232 1.05127C8.78041 1.34521 8.78041 1.34521 9.08162 1.19574C9.17248 1.15031 9.26061 1.1076 9.3492 1.06217C9.4228 1.02447 9.49504 0.984033 9.56773 0.944963L9.57045 0.903166C9.30468 0.923155 9.03119 0.957682 8.94351 0.606048C9.05534 0.611959 9.16741 0.611959 9.27924 0.606048C9.48459 0.584695 9.65541 0.618314 9.74309 0.833202C9.749 0.84774 9.76853 0.857281 9.77853 0.866822L10.1134 0.739161L10.0352 0.633306C10.1892 0.633306 10.3255 0.638304 10.4609 0.633306C10.5845 0.626946 10.6912 0.641029 10.7744 0.749609C10.8111 0.781482 10.8589 0.797777 10.9075 0.79504C11.2478 0.798675 11.5889 0.797766 11.9283 0.79504C11.968 0.791201 12.0073 0.784521 12.046 0.77505C11.8965 0.581969 11.7916 0.411603 11.5054 0.417055C10.4845 0.437953 9.46369 0.425234 8.44286 0.425234L8.25659 0.424324Z" fill="white"/>
<path d="M11.3059 2.17977C11.5331 2.17977 11.7293 2.17204 11.922 2.18476C11.9674 2.18794 12.0187 2.25019 12.0555 2.29516C12.0983 2.35601 12.1369 2.4196 12.1714 2.48552C11.9519 2.48552 11.7548 2.49188 11.5585 2.48052C11.5131 2.47779 11.4676 2.41692 11.4336 2.37421C11.3918 2.32333 11.3604 2.26381 11.3059 2.17977Z" fill="white"/>
<path d="M11.8193 1.83313C11.5698 1.83313 11.3627 1.86039 11.1687 1.82132C11.0751 1.80224 11.007 1.65868 10.927 1.57145L10.9456 1.53511C11.151 1.53511 11.3613 1.5083 11.5585 1.54737C11.6498 1.56555 11.7152 1.7132 11.8193 1.83313Z" fill="white"/>
<path d="M12.0451 1.53193C12.235 1.53193 12.4254 1.52103 12.6134 1.53784C12.6743 1.54375 12.7329 1.61825 12.7856 1.66868C12.8313 1.71991 12.8738 1.77393 12.9128 1.83042C12.6798 1.83042 12.4662 1.85767 12.2659 1.81815C12.1718 1.79998 12.1032 1.65278 12.0237 1.56374L12.0451 1.53193Z" fill="white"/>
</svg>
