<svg width="12" height="15" viewBox="0 0 12 15" fill="none" xmlns="http://www.w3.org/2000/svg">
<path d="M10.9999 4.50232C11.0178 6.85241 8.90373 9.00055 6.0086 9C3.19762 9 0.998178 7.0068 1 4.50178C1.00213 1.96478 3.19489 0.0030087 6.0165 2.77569e-06C8.79163 -0.00272988 11.0014 2.0126 10.9999 4.50232Z" fill="white"/>
<path d="M0 12.1192C0.269003 11.8418 0.582669 11.611 0.928072 11.4363C1.48207 11.1529 2.09742 11.0089 2.72031 11.0167C3.11158 11.0185 3.47441 11.0624 3.84193 11.2214C4.38005 11.455 4.95729 11.5588 5.54731 11.6013C6.40669 11.6616 7.26932 11.5447 8.08112 11.2578C8.10634 11.2512 8.13095 11.2426 8.15468 11.2318C8.70453 10.9186 9.30081 10.9908 9.88249 11.0603C10.6814 11.1555 11.3693 11.5105 11.952 12.066C11.9643 12.078 11.9755 12.092 12 12.1179C10.6139 13.8593 8.78643 14.8126 6.58859 14.9753C3.91757 15.1712 1.7106 14.1985 0 12.1192Z" fill="white"/>
</svg>
