<svg width="15" height="11" viewBox="0 0 15 11" fill="none" xmlns="http://www.w3.org/2000/svg">
<path d="M5.35955 6.24029C5.40378 6.17586 5.45168 6.11405 5.50301 6.05516C7.39481 4.15117 9.28674 2.2469 11.1788 0.342348C11.4153 0.103962 11.6652 -0.0608789 12.0131 0.0211192C12.0972 0.0414074 12.1961 0.0718382 12.2571 0.130589C12.7548 0.606094 13.2588 1.07611 13.733 1.57528C14.0868 1.94765 14.0817 2.39357 13.77 2.82342C13.6945 2.92402 13.6114 3.01856 13.5213 3.10619C11.0251 5.60925 8.5289 8.11174 6.03269 10.6137C5.83958 10.8072 5.65152 11.0304 5.34188 10.9941C5.21272 10.9789 5.05958 10.9298 4.97207 10.8415C3.44069 9.30268 1.91533 7.75782 0.396 6.2069C0.265159 6.07376 0.135158 5.9216 0.0632166 5.75295C-0.0629967 5.45455 0.0177808 5.16121 0.237813 4.93593C0.713216 4.44859 1.19703 3.96886 1.69474 3.50435C1.93917 3.27568 2.3481 3.28752 2.60515 3.50054C2.77344 3.63918 2.92532 3.79641 3.07888 3.94942C3.78735 4.66204 4.49485 5.37565 5.20136 6.09024C5.23796 6.13124 5.27961 6.16717 5.35955 6.24029Z" fill="white"/>
</svg>
